/* XPM */
static char * lunremote_xpm[] = {
"32 32 190 2",
"  	c None",
". 	c #313127",
"+ 	c #242424",
"@ 	c #484844",
"# 	c #4E4E4A",
"$ 	c #2B2B26",
"% 	c #333326",
"& 	c #2A2A24",
"* 	c #3C3C3C",
"= 	c #5C5C59",
"- 	c #60605C",
"; 	c #464643",
"> 	c #252525",
", 	c #2D2D26",
"' 	c #353535",
") 	c #595955",
"! 	c #383838",
"~ 	c #282828",
"{ 	c #2B2B2B",
"] 	c #2D2D2D",
"^ 	c #555551",
"/ 	c #303030",
"( 	c #262626",
"_ 	c #3D3D3D",
": 	c #B34350",
"< 	c #404040",
"[ 	c #2C2C27",
"} 	c #DD334B",
"| 	c #4A2F28",
"1 	c #353531",
"2 	c #994B53",
"3 	c #D7364A",
"4 	c #E5324A",
"5 	c #E7324A",
"6 	c #94404B",
"7 	c #7B5757",
"8 	c #CC394C",
"9 	c #E6324A",
"0 	c #D6394D",
"a 	c #9C656C",
"b 	c #996B70",
"c 	c #D23B4F",
"d 	c #E6314A",
"e 	c #D2384C",
"f 	c #825457",
"g 	c #636363",
"h 	c #2E2E24",
"i 	c #8A3F47",
"j 	c #50504D",
"k 	c #60605D",
"l 	c #685B57",
"m 	c #BB3E50",
"n 	c #E3334A",
"o 	c #DD364B",
"p 	c #AE5965",
"q 	c #80807D",
"r 	c #AB5D65",
"s 	c #DB374C",
"t 	c #E4334A",
"u 	c #C23B4E",
"v 	c #6A5959",
"w 	c #686868",
"x 	c #A2A2A2",
"y 	c #FFFFFF",
"z 	c #2C2C2C",
"A 	c #484846",
"B 	c #474747",
"C 	c #515151",
"D 	c #5C5C5C",
"E 	c #AB4552",
"F 	c #DE354C",
"G 	c #E1334A",
"H 	c #BF4A5A",
"I 	c #847E7E",
"J 	c #817E7B",
"K 	c #BA515D",
"L 	c #E2344B",
"M 	c #DF344A",
"N 	c #B54350",
"O 	c #606060",
"P 	c #8F8F8F",
"Q 	c #F6F6F6",
"R 	c #953E4A",
"S 	c #CB4253",
"T 	c #8D7575",
"U 	c #E25D6E",
"V 	c #973E47",
"W 	c #676767",
"X 	c #797979",
"Y 	c #939393",
"Z 	c #DBDBDB",
"` 	c #E7344B",
" .	c #E85E6F",
"..	c #636360",
"+.	c #6A6A6A",
"@.	c #7E7E7B",
"#.	c #8A8A8A",
"$.	c #C2C2C2",
"%.	c #646464",
"&.	c #747471",
"*.	c #7E7E7E",
"=.	c #848481",
"-.	c #ABABAB",
";.	c #FAFAFA",
">.	c #656565",
",.	c #767673",
"'.	c #A1A1A1",
").	c #EBEBEB",
"!.	c #EB5F70",
"~.	c #F49BA6",
"{.	c #DD3249",
"].	c #5E4343",
"^.	c #A03B49",
"/.	c #D74F62",
"(.	c #ECA8AE",
"_.	c #EE6B7C",
":.	c #474744",
"<.	c #474745",
"[.	c #A5A5A5",
"}.	c #EDEDED",
"|.	c #484845",
"1.	c #444442",
"2.	c #4E4E4C",
"3.	c #BFBFBF",
"4.	c #9B9B9B",
"5.	c #434340",
"6.	c #535350",
"7.	c #D5D5D5",
"8.	c #9A9A9A",
"9.	c #BABABA",
"0.	c #454542",
"a.	c #454543",
"b.	c #5A5A57",
"c.	c #E5E5E5",
"d.	c #A8A8A8",
"e.	c #CA3246",
"f.	c #6E4347",
"g.	c #464644",
"h.	c #5E5E5C",
"i.	c #EFEFEF",
"j.	c #AFAFAF",
"k.	c #9F9F9F",
"l.	c #E6E6E6",
"m.	c #F592A1",
"n.	c #E2374E",
"o.	c #E03347",
"p.	c #E33249",
"q.	c #E43149",
"r.	c #B93444",
"s.	c #564747",
"t.	c #434341",
"u.	c #989898",
"v.	c #CFCFCF",
"w.	c #F7D6DE",
"x.	c #E34357",
"y.	c #E43148",
"z.	c #E23047",
"A.	c #E4324A",
"B.	c #E13249",
"C.	c #A73846",
"D.	c #4A4845",
"E.	c #E75366",
"F.	c #E5334A",
"G.	c #E53249",
"H.	c #E23048",
"I.	c #E23349",
"J.	c #D73147",
"K.	c #8C3C46",
"L.	c #E96C7E",
"M.	c #E4354C",
"N.	c #E23148",
"O.	c #EB3347",
"P.	c #E23249",
"Q.	c #C93347",
"R.	c #6C4345",
"S.	c #F3A2AE",
"T.	c #E23950",
"U.	c #E6334D",
"V.	c #E1324B",
"W.	c #E43249",
"X.	c #B93446",
"Y.	c #544745",
"Z.	c #E54559",
"`.	c #E13049",
" +	c #E43349",
".+	c #E03149",
"++	c #DF2F47",
"@+	c #E13349",
"#+	c #D53248",
"$+	c #E32F4C",
"                              . .                               ",
"                            + @ # $ %                           ",
"                        & * = - - - ; >                         ",
"                    , ' ) - - - - - - ) ! ~                     ",
"                { ] ^ - - - - - - - - - - ^ / (                 ",
"              + @ - - - - - - - - - - - - - - # $               ",
"          > _ = - - - - - - - : : - - - - - - - - < [           ",
"    } | 1 ) - - - - - - - 2 3 4 4 3 2 - - - - - - - ) ! ~       ",
"    5 6 - - - - - - - 7 8 9 0 a b c d e f - - - - - - - g h     ",
"    5 i j k - - - l m n o p q q q q r s t u v - - - w x y z     ",
"    5 i A B C D E F G H I q q q q q q J K L M N O P Q y y z     ",
"    5 i A A A R d S T q q q q q q q q q q T S d U y y y y z     ",
"    5 i A A A V n W X q q q q q q q q q q Y Z `  .y y y y z     ",
"    5 i A A A V n ....+.@.q q q q q q #.$.y y `  .y y y y z     ",
"    5 i A A A V n ......%.&.*.q q =.-.;.y y y `  .y y y y z     ",
"    5 i A A A V n ..........>.,.'.).y y y y y ` !.y y y ~.{.    ",
"    5 i A A A ].^...............y y y y y y y /.(.y y y _.5     ",
"    5 i A A A :.<...............y y y y y y y [.}.y y y _.5     ",
"    5 i A A A :.<...............y y y y y y y [.}.y y y _.5     ",
"    5 i A A A :.<...............y y y y y y y [.}.y y y _.5     ",
"    5 i A A A |.1.2.............y y y y y ;.3.4.Q y y y _.5     ",
"    5 i A A A A A :.5.6.........y y y y 7.8.9.y y y y y _.5     ",
"    5 i A A A A A A :.0.a.b.....y y c.[.d.}.y y y y y y _.5     ",
"    5 e.f.A A A A A A A g.a.<.h.i.j.k.l.y y y y y y y m.n.5     ",
"    o.p.q.r.s.A A A A A A A ; t.u.v.y y y y y y y w.x.9 4 y.    ",
"        z.A.B.C.D.A A A A A A A y y y y y y y y E.F.G.H.        ",
"            I.q.J.K.A A A A A A y y y y y y L.M.9 N.            ",
"              O.P.9 Q.R.A A A A y y y y S.T.5 p.U.              ",
"                  V.p.W.X.Y.A A y y w.Z.9 4 `.                  ",
"                      z. +.+C.D.y E.4 G.++                      ",
"                          @+4 #+M.9 @+                          ",
"                            $+P.n $+                            "};
